<svg xmlns="http://www.w3.org/2000/svg" viewBox="0 0 512 512">
  <defs>
    <radialGradient id="bg" cx="40%" cy="35%">
      <stop offset="0%" stop-color="#ffffff"/>
      <stop offset="100%" stop-color="#f5ede0"/>
    </radialGradient>
  </defs>
  <!-- 밝은 크림 배경 -->
  <rect width="512" height="512" rx="110" fill="url(#bg)"/>

  <!-- 아기 얼굴 -->
  <circle cx="256" cy="222" r="128" fill="#ffddb3"/>
  <!-- 볼터치 -->
  <ellipse cx="168" cy="262" rx="30" ry="18" fill="#ffb3b3" opacity="0.55"/>
  <ellipse cx="344" cy="262" rx="30" ry="18" fill="#ffb3b3" opacity="0.55"/>
  <!-- 귀 -->
  <circle cx="124" cy="224" r="26" fill="#ffddb3"/>
  <circle cx="388" cy="224" r="26" fill="#ffddb3"/>
  <!-- 머리카락 -->
  <ellipse cx="256" cy="100" rx="90" ry="38" fill="#2d2a26"/>
  <ellipse cx="180" cy="116" rx="38" ry="28" fill="#2d2a26"/>
  <ellipse cx="332" cy="116" rx="38" ry="28" fill="#2d2a26"/>
  <circle cx="256" cy="96" r="22" fill="#2d2a26"/>
  <!-- 눈 -->
  <ellipse cx="214" cy="212" rx="15" ry="17" fill="#2d2a26"/>
  <ellipse cx="298" cy="212" rx="15" ry="17" fill="#2d2a26"/>
  <circle cx="220" cy="206" r="5" fill="#fff"/>
  <circle cx="304" cy="206" r="5" fill="#fff"/>
  <!-- 코 -->
  <ellipse cx="256" cy="244" rx="9" ry="6" fill="#e8a87c"/>
  <!-- 미소 -->
  <path d="M226 268 Q256 296 286 268" fill="none" stroke="#c47a3a" stroke-width="6" stroke-linecap="round"/>

  <!-- 하단 텍스트 -->
  <text x="256" y="408" font-family="Georgia, serif" font-size="42" font-weight="700"
    text-anchor="middle" fill="#2d2a26" letter-spacing="1">BABY HAÜS</text>
</svg>
